<svg xmlns:dc="http://purl.org/dc/elements/1.1/" xmlns:cc="http://creativecommons.org/ns#" xmlns:rdf="http://www.w3.org/1999/02/22-rdf-syntax-ns#" xmlns:svg="http://www.w3.org/2000/svg" xmlns="http://www.w3.org/2000/svg" xmlns:sodipodi="http://sodipodi.sourceforge.net/DTD/sodipodi-0.dtd" xmlns:inkscape="http://www.inkscape.org/namespaces/inkscape" width="1170.14" height="520" id="svg3527"><defs id="defs3529"><clipPath id="clipPath234"><path d="M 0,842 595,842 595,0 0,0 0,842 z" id="path236"></path></clipPath></defs><metadata></metadata><g id="layer1" transform="translate(312.61546,220.16918)"><g transform="matrix(10.304647,0,0,-10.304647,-1581.1886,8043.9159)" id="g230"><g id="g232" clip-path="url(#clipPath234)"><g id="g238" transform="translate(217.3247,766.4546)"><path d="m 0,0 c -0.255,-0.43 -0.877,-0.825 -1.649,-0.825 -1.015,0 -1.375,0.569 -1.375,1.204 0,0.722 0.481,1.135 1.375,1.135 0.842,0 1.236,-0.12 1.649,-0.378 L 0,0 z m 2.372,-2.645 0,6.048 c 0,2.029 -1.479,3.162 -3.661,3.162 -1.461,0 -2.337,-0.31 -3.385,-0.912 l 0.911,-1.648 c 0.826,0.445 1.391,0.6 2.474,0.6 C -0.43,4.605 0,4.089 0,3.454 L 0,3.008 c -0.376,0.189 -0.911,0.36 -1.736,0.36 -2.045,0 -3.66,-0.997 -3.66,-2.989 0,-2.182 1.684,-3.213 3.369,-3.213 0.842,0 1.597,0.343 2.027,0.792 l 0,-0.603 2.372,0 z" style="fill:#1a171b;fill-opacity:1;fill-rule:nonzero;stroke:none" id="path240"></path></g><g id="g242" transform="translate(233.2881,763.812)"><path d="m 0,0 0,9.48 -2.518,-1.316 0,2.313 2.912,1.551 1.993,0 L 2.387,0 0,0 z" style="fill:#1a171b;fill-opacity:1;fill-rule:nonzero;stroke:none" id="path244"></path></g><g id="g246" transform="translate(130.7295,771.9712)"><path d="m 0,0 c 0,-1.047 -0.602,-1.564 -1.718,-1.564 l -2.529,0 0,3.094 2.494,0 C -0.685,1.53 0,1.048 0,0 m 2.473,0.051 c 0,2.561 -1.871,3.815 -4.14,3.815 l -4.985,0 0,-12.029 2.405,0 0,4.262 2.374,0 c 2.491,0 4.346,1.168 4.346,3.952" style="fill:#1a171b;fill-opacity:1;fill-rule:nonzero;stroke:none" id="path248"></path></g><g id="g250" transform="translate(139.2671,770.063)"><path d="m 0,0 c -0.378,0.344 -0.841,0.584 -1.372,0.584 -0.931,0 -1.532,-0.395 -1.532,-1.958 l 0,-4.88 -2.371,0 0,9.022 2.371,0 0,-0.602 c 0.412,0.429 1.015,0.79 1.855,0.79 0.775,0 1.36,-0.31 1.668,-0.636 L 0,0 z" style="fill:#1a171b;fill-opacity:1;fill-rule:nonzero;stroke:none" id="path252"></path></g><g id="g254" transform="translate(145.9658,768.312)"><path d="m 0,0 c 0,-1.257 -0.548,-2.408 -1.684,-2.408 -1.133,0 -1.667,1.015 -1.667,2.408 0,1.391 0.534,2.422 1.667,2.422 C -0.548,2.422 0,1.374 0,0 m 2.406,0 c 0,2.765 -1.736,4.707 -4.09,4.707 -2.355,0 -4.07,-1.942 -4.07,-4.707 0,-2.768 1.715,-4.693 4.07,-4.693 2.354,0 4.09,1.925 4.09,4.693" style="fill:#1a171b;fill-opacity:1;fill-rule:nonzero;stroke:none" id="path256"></path></g><g id="g258" transform="translate(153.8525,763.6187)"><path d="m 0,0 c -2.011,0 -3.763,0.843 -4.673,2.185 l 1.735,1.545 c 0.842,-0.98 1.925,-1.376 3.073,-1.376 1.426,0 2.096,0.396 2.096,1.308 0,0.774 -0.414,1.115 -2.677,1.631 -2.217,0.517 -3.764,1.22 -3.764,3.593 0,2.18 1.925,3.521 4.295,3.521 1.872,0 3.241,-0.702 4.376,-1.89 L 2.727,8.834 C 1.957,9.623 1.098,10.071 0,10.071 c -1.291,0 -1.719,-0.55 -1.719,-1.086 0,-0.753 0.516,-0.993 2.422,-1.441 C 2.607,7.098 4.72,6.444 4.72,3.833 4.72,1.547 3.276,0 0,0" style="fill:#1a171b;fill-opacity:1;fill-rule:nonzero;stroke:none" id="path260"></path></g><g id="g262" transform="translate(161.4907,773.5698)"><path d="m 0,0 c -0.738,0 -1.356,0.617 -1.356,1.358 0,0.738 0.618,1.356 1.356,1.356 0.738,0 1.357,-0.618 1.357,-1.356 C 1.357,0.617 0.738,0 0,0 m -1.187,-0.739 2.374,0 0,-9.022 -2.374,0 0,9.022 z" style="fill:#1a171b;fill-opacity:1;fill-rule:nonzero;stroke:none" id="path264"></path></g><g id="g266" transform="translate(170.0459,769.3423)"><path d="m 0,0 -3.094,0 c 0.086,0.91 0.621,1.614 1.479,1.614 C -0.55,1.614 -0.069,0.807 0,0 m 2.303,-1.03 c 0,2.577 -1.394,4.707 -3.8,4.707 -2.283,0 -4.019,-1.942 -4.019,-4.707 0,-2.852 1.649,-4.694 4.245,-4.694 1.202,0 2.509,0.534 3.229,1.463 l -1.682,1.409 c -0.345,-0.398 -0.895,-0.635 -1.547,-0.635 -0.86,0 -1.771,0.463 -1.858,1.7 l 5.398,0 c 0.018,0.173 0.034,0.413 0.034,0.757" style="fill:#1a171b;fill-opacity:1;fill-rule:nonzero;stroke:none" id="path268"></path></g><g id="g270" transform="translate(179.5483,768.1587)"><path d="m 0,0 c 0,-1.515 -0.501,-2.304 -1.413,-2.304 -0.685,0 -1.236,0.276 -1.598,0.772 l 0,3.402 c 0.346,0.445 0.722,0.755 1.462,0.755 C -0.622,2.625 0,1.853 0,0 m 2.403,0.049 c 0,3.368 -1.581,4.811 -3.505,4.811 -0.859,0 -1.462,-0.361 -1.909,-0.756 l 0,3.941 -2.369,0 0,-12.395 2.369,0 0,0.515 c 0.431,-0.393 1.118,-0.705 1.909,-0.705 2.233,0 3.505,1.893 3.505,4.589" style="fill:#1a171b;fill-opacity:1;fill-rule:nonzero;stroke:none" id="path272"></path></g><g id="g274" transform="translate(188.6333,769.3423)"><path d="m 0,0 -3.094,0 c 0.087,0.91 0.618,1.614 1.478,1.614 C -0.551,1.614 -0.068,0.807 0,0 m 2.302,-1.03 c 0,2.577 -1.392,4.707 -3.798,4.707 -2.285,0 -4.02,-1.942 -4.02,-4.707 0,-2.852 1.649,-4.694 4.245,-4.694 1.203,0 2.509,0.534 3.229,1.463 l -1.683,1.409 c -0.343,-0.398 -0.895,-0.635 -1.546,-0.635 -0.86,0 -1.77,0.463 -1.856,1.7 l 5.396,0 c 0.017,0.173 0.033,0.413 0.033,0.757" style="fill:#1a171b;fill-opacity:1;fill-rule:nonzero;stroke:none" id="path276"></path></g><g id="g278" transform="translate(198.0293,763.8086)"><path d="m 0,0 0,4.881 c 0,1.616 -0.547,2.095 -1.528,2.095 -0.98,0 -1.549,-0.479 -1.549,-2.043 l 0,-4.933 -2.369,0 0,9.022 2.369,0 0,-0.602 c 0.414,0.429 1.168,0.79 2.113,0.79 2.306,0 3.336,-1.581 3.336,-4.122 L 2.372,0 0,0 z" style="fill:#1a171b;fill-opacity:1;fill-rule:nonzero;stroke:none" id="path280"></path></g><g id="g282" transform="translate(206.1719,763.6187)"><path d="m 0,0 c -2.009,0 -3.763,0.843 -4.673,2.185 l 1.735,1.545 c 0.842,-0.98 1.924,-1.376 3.078,-1.376 1.423,0 2.096,0.396 2.096,1.308 0,0.774 -0.413,1.115 -2.683,1.631 -2.215,0.517 -3.763,1.22 -3.763,3.593 0,2.18 1.926,3.521 4.295,3.521 1.872,0 3.25,-0.702 4.383,-1.89 L 2.734,8.834 C 1.957,9.623 1.1,10.071 0,10.071 c -1.29,0 -1.717,-0.55 -1.717,-1.086 0,-0.753 0.514,-0.993 2.42,-1.441 C 2.612,7.098 4.726,6.444 4.726,3.833 4.726,1.547 3.284,0 0,0" style="fill:#1a171b;fill-opacity:1;fill-rule:nonzero;stroke:none" id="path284"></path></g><g id="g286" transform="translate(227.3457,763.9316)"><path d="m 0,0 c -0.017,-0.013 -1.406,-0.313 -2.306,-0.313 -1.46,0 -2.405,1.135 -2.405,2.716 l 0,4.262 -1.516,0 0,2.234 1.516,0 0,3.012 2.371,-0.003 0,-3.009 2.165,0 0,-2.234 -2.165,0 0,-3.626 c 0,-1.056 0.307,-1.157 0.875,-1.157 0.43,0 1.155,0.083 1.465,0.149 L 0,0 z" style="fill:#1a171b;fill-opacity:1;fill-rule:nonzero;stroke:none" id="path288"></path></g><g id="g290" transform="translate(230.3081,763.627)"><path d="M 0,0 C -0.828,0 -1.521,0.697 -1.521,1.521 -1.521,2.346 -0.828,3.04 0,3.04 0.824,3.04 1.517,2.346 1.517,1.521 1.517,0.697 0.824,0 0,0" style="fill:#1a171b;fill-opacity:1;fill-rule:nonzero;stroke:none" id="path292"></path></g><g id="g294" transform="translate(190.2188,781.7461)"><path d="m 0,0 c 0,-0.779 -0.632,-1.409 -1.41,-1.409 l -17.849,0 c -0.779,0 -1.41,0.63 -1.41,1.409 l 0,17.85 c 0,0.779 0.631,1.41 1.41,1.41 l 17.849,0 C -0.632,19.26 0,18.629 0,17.85 L 0,0 z" style="fill:#c6c7c8;fill-opacity:1;fill-rule:nonzero;stroke:none" id="path296"></path></g><path d="m 174.894,795.765 9.979,0 0,-2.807 -9.979,0 0,2.807 z" style="fill:#ffffff;fill-opacity:1;fill-rule:nonzero;stroke:none" id="path298"></path><g id="g300" transform="translate(184.8735,792.4224)"><path d="m 0,0 0,-6.845 -9.979,0 c 0,0 1.229,3.323 4.442,5.289 C -2.488,0.312 0,0 0,0" style="fill:#ffffff;fill-opacity:1;fill-rule:nonzero;stroke:none" id="path302"></path></g><g id="g304" transform="translate(212.9546,781.7461)"><path d="m 0,0 c 0,-0.779 -0.631,-1.409 -1.41,-1.409 l -17.85,0 c -0.778,0 -1.407,0.63 -1.407,1.409 l 0,17.85 c 0,0.779 0.629,1.41 1.407,1.41 l 17.85,0 C -0.631,19.26 0,18.629 0,17.85 L 0,0 z" style="fill:#c6c7c8;fill-opacity:1;fill-rule:nonzero;stroke:none" id="path306"></path></g><g id="g308" transform="translate(195.7739,794.7769)"><path d="m 0,0 c 0,0.262 0.169,0.477 0.378,0.477 l 12.936,0 c 0.209,0 0.378,-0.215 0.378,-0.477 l 0,-8.211 c 0,-0.263 -0.169,-0.477 -0.378,-0.477 l -12.936,0 C 0.169,-8.688 0,-8.474 0,-8.211 l 0,3.576 c 0.41,-1.134 1.194,-2.022 2.245,-2.723 0.875,-0.509 1.846,-0.884 2.932,-0.884 3.661,0 5.998,2.656 5.998,5.929 0,0.832 -0.237,1.62 -0.548,2.338 C 10.003,-0.181 8.696,-0.443 8.026,-0.519 7.891,-1.538 6.974,-2.253 5.717,-2.522 5.717,-2.7 5.664,-3.833 5.648,-4.019 6.167,-3.941 6.797,-3.83 7.322,-3.678 6.708,-5.995 4.348,-7.002 2.27,-6.179 0.896,-5.634 0,-4.489 0,-2.292 L 0,0 z" style="fill:#ffffff;fill-opacity:1;fill-rule:nonzero;stroke:none" id="path310"></path></g><g id="g312" transform="translate(167.4829,781.7461)"><path d="m 0,0 c 0,-0.779 -0.63,-1.409 -1.408,-1.409 l -17.852,0 c -0.778,0 -1.409,0.63 -1.409,1.409 l 0,17.85 c 0,0.779 0.631,1.41 1.409,1.41 l 17.852,0 C -0.63,19.26 0,18.629 0,17.85 L 0,0 z" style="fill:#c6c7c8;fill-opacity:1;fill-rule:nonzero;stroke:none" id="path314"></path></g><g id="g316" transform="translate(159.2891,795.3975)"><path d="M 0,0 C 0.52,0.316 0.44,0.355 0.929,0.058 1.162,-0.086 1.687,-0.438 2.089,-0.886 2.597,-1.46 2.892,-2.032 3.004,-2.313 3.238,-2.879 3.201,-2.768 2.705,-3.278 -0.484,-6.519 -5.684,-7.642 -5.684,-7.642 -5.421,-7.087 -3.113,-2.072 0,0" style="fill:#ffffff;fill-opacity:1;fill-rule:nonzero;stroke:none" id="path318"></path></g><g id="g320" transform="translate(151.6089,791.874)"><path d="M 0,0 C 0,0 0.166,1.703 2.026,3.21 2.048,3.229 2.072,3.188 2.049,3.165 1.225,2.325 0.129,-0.158 1.996,-4.12 1.486,-3.684 -0.322,-1.858 0,0" style="fill:#ffffff;fill-opacity:1;fill-rule:nonzero;stroke:none" id="path322"></path></g><g id="g324" transform="translate(160.8716,786.5371)"><path d="M 0,0 C 0.054,0.037 0.076,-0.021 0.051,-0.045 -1.351,-1.45 -3.341,-1.59 -3.99,-1.46 -5.89,-0.918 -6.93,0.649 -7.267,1.217 -3.823,-1.259 -0.924,-0.63 0,0" style="fill:#ffffff;fill-opacity:1;fill-rule:nonzero;stroke:none" id="path326"></path></g><g id="g328" transform="translate(153.3076,786.5474)"><path d="M 0,0 C 0.01,-0.049 -0.014,-0.055 -0.036,-0.031 -0.481,0.366 -0.678,0.57 -1.029,1.164 -1.047,1.195 -1.018,1.2 -0.987,1.186 -0.747,1.074 -0.198,0.996 0.297,1.207 -0.09,0.633 -0.005,0.021 0,0" style="fill:#ffffff;fill-opacity:1;fill-rule:nonzero;stroke:none" id="path330"></path></g><g id="g332" transform="translate(151.9639,788.3389)"><path d="M 0,0 C -0.385,0.791 -0.434,1.461 -0.473,1.961 -0.475,2 -0.427,1.99 -0.42,1.961 -0.165,1.031 0.245,0.356 1.641,-0.584 1.325,-0.585 0.354,-0.458 0,0" style="fill:#ffffff;fill-opacity:1;fill-rule:nonzero;stroke:none" id="path334"></path></g><g id="g336" transform="translate(156.4063,796.2822)"><path d="M 0,0 C 1.107,0.121 2.233,-0.138 2.301,-0.183 2.328,-0.199 2.338,-0.225 2.316,-0.236 2.047,-0.355 1.06,-0.879 -0.223,-2.541 -1.547,-4.334 -2.388,-7 -2.802,-8.526 -3.048,-7.829 -4.746,-0.511 0,0" style="fill:#ffffff;fill-opacity:1;fill-rule:nonzero;stroke:none" id="path338"></path></g><g id="g340" transform="translate(153.605,787.7559)"><path d="m 0,0 c 1.571,0.142 4.381,0.516 6.375,1.506 1.856,0.975 2.55,1.87 2.715,2.112 10e-4,0.01 0.024,0.023 0.036,-0.007 -0.003,0.005 -0.003,0.004 0,0 C 9.176,3.476 9.218,2.353 8.906,1.281 7.57,-3.318 0.64,-0.366 0,0" style="fill:#ffffff;fill-opacity:1;fill-rule:nonzero;stroke:none" id="path342"></path></g><g id="g344" transform="translate(153.604,787.7544)"><path d="M 0,0 C 0.438,-0.92 0.789,-1.827 2.277,-2.554 2.312,-2.571 2.279,-2.614 2.243,-2.605 1.333,-2.41 0.821,-2.085 0.325,-1.746 -0.098,-1.461 -0.05,-0.384 0,0" style="fill:#ffffff;fill-opacity:1;fill-rule:nonzero;stroke:none" id="path346"></path></g><g id="g348" transform="translate(144.7466,781.7461)"><path d="m 0,0 c 0,-0.779 -0.633,-1.409 -1.41,-1.409 l -17.849,0 c -0.779,0 -1.41,0.63 -1.41,1.409 l 0,17.85 c 0,0.779 0.631,1.41 1.41,1.41 l 17.849,0 C -0.633,19.26 0,18.629 0,17.85 L 0,0 z" style="fill:#e30040;fill-opacity:1;fill-rule:nonzero;stroke:none" id="path350"></path></g><g id="g352" transform="translate(127.4385,797.5527)"><path d="m 0,0 0,-3.352 7.07,0 c -2.925,-2.882 -8.189,-8.071 -8.189,-8.071 l 2.345,-2.403 c 0,0 6.17,6.197 9.476,9.515 l 0,-9.454 3.265,0 L 13.967,0 0,0 z" style="fill:#ffffff;fill-opacity:1;fill-rule:nonzero;stroke:none" id="path354"></path></g><g id="g356" transform="translate(137.1548,785.9839)"><path d="m 0,0 c 0,1.222 -0.99,2.213 -2.211,2.213 -1.221,0 -2.211,-0.991 -2.211,-2.213 0,-1.218 0.99,-2.211 2.211,-2.211 C -0.99,-2.211 0,-1.218 0,0" style="fill:#ffffff;fill-opacity:1;fill-rule:nonzero;stroke:none" id="path358"></path></g><g id="g360" transform="translate(235.6909,781.7471)"><path d="m 0,0 c 0,-0.78 -0.628,-1.41 -1.408,-1.41 l -17.853,0 c -0.777,0 -1.408,0.63 -1.408,1.41 l 0,17.849 c 0,0.779 0.631,1.41 1.408,1.41 l 17.853,0 C -0.628,19.259 0,18.628 0,17.849 L 0,0 z" style="fill:#c6c7c8;fill-opacity:1;fill-rule:nonzero;stroke:none" id="path362"></path></g><g id="g364" transform="translate(221.1099,791.7856)"><path d="m 0,0 c -0.331,0 -0.6,-0.267 -0.6,-0.597 l 0,-1.107 c 0,-0.676 -0.546,-1.228 -1.228,-1.228 l -1.859,0 c -0.194,0 -0.351,0.158 -0.351,0.352 0,0.193 0.157,0.35 0.351,0.35 l 1.79,0 c 0.332,0 0.599,0.268 0.599,0.599 l 0,1.103 c 0,0.678 0.548,1.23 1.228,1.23 l 0.875,0 C 1,0.702 1.156,0.544 1.156,0.35 1.156,0.157 1,0 0.805,0 L 0,0 z" style="fill:#ffffff;fill-opacity:1;fill-rule:nonzero;stroke:none" id="path366"></path></g><g id="g368" transform="translate(223.3203,792.5371)"><path d="m 0,0 c -0.192,0 -0.35,-0.158 -0.35,-0.351 l 0,-3.03 c 0,-0.193 0.158,-0.351 0.35,-0.351 0.195,0 0.352,0.158 0.352,0.351 l 0,3.03 C 0.352,-0.158 0.195,0 0,0" style="fill:#ffffff;fill-opacity:1;fill-rule:nonzero;stroke:none" id="path370"></path></g><g id="g372" transform="translate(233.5073,789.4209)"><path d="M 0,0 -1.43,1.25 0,2.501 c 0.147,0.125 0.162,0.35 0.037,0.496 -0.129,0.145 -0.35,0.161 -0.498,0.034 L -1.964,1.716 -3.469,3.031 C -3.618,3.158 -3.841,3.142 -3.965,2.997 -4.094,2.851 -4.08,2.626 -3.93,2.501 L -2.498,1.25 -3.932,0 c -0.148,-0.127 -0.162,-0.349 -0.033,-0.495 0.124,-0.147 0.347,-0.163 0.496,-0.034 l 1.505,1.313 1.503,-1.313 c 0.148,-0.129 0.369,-0.113 0.498,0.034 C 0.162,-0.349 0.147,-0.127 0,0" style="fill:#ffffff;fill-opacity:1;fill-rule:nonzero;stroke:none" id="path374"></path></g><g id="g376" transform="translate(228.6348,789.4209)"><path d="M 0,0 -1.431,1.25 0,2.501 C 0.146,2.626 0.16,2.851 0.035,2.997 -0.092,3.142 -0.314,3.158 -0.46,3.031 L -1.966,1.716 -3.471,3.031 C -3.618,3.158 -3.842,3.142 -3.965,2.997 -4.093,2.851 -4.079,2.626 -3.933,2.501 L -2.499,1.25 -3.933,0 c -0.146,-0.127 -0.16,-0.349 -0.032,-0.495 0.123,-0.147 0.347,-0.163 0.494,-0.034 l 1.505,1.313 1.506,-1.313 c 0.146,-0.129 0.368,-0.113 0.495,0.034 C 0.16,-0.349 0.146,-0.127 0,0" style="fill:#ffffff;fill-opacity:1;fill-rule:nonzero;stroke:none" id="path378"></path></g><g id="g380" transform="translate(165.0518,759.7661)"><path d="m 0,0 0,-7.155 -0.888,0 0,7.155 -2.343,0 0,0.809 5.574,0 L 2.343,0 0,0 z" style="fill:#1a171b;fill-opacity:1;fill-rule:nonzero;stroke:none" id="path382"></path></g><g id="g384" transform="translate(171.7432,752.6108)"><path d="m 0,0 -0.979,0 -2.708,7.964 0.933,0 1.775,-5.451 c 0.159,-0.477 0.41,-1.287 0.491,-1.571 0.079,0.284 0.353,1.128 0.499,1.594 l 1.787,5.428 0.91,0 L 0,0 z" style="fill:#1a171b;fill-opacity:1;fill-rule:nonzero;stroke:none" id="path386"></path></g><g id="g388" transform="translate(179.5039,759.7661)"><path d="m 0,0 -1.151,0 0,-6.349 1.173,0 c 1.718,0 2.787,0.91 2.787,3.198 C 2.809,-1.113 1.831,0 0,0 m -0.091,-7.155 -1.946,0 0,7.964 2.104,0 c 2.094,0 3.628,-1.194 3.628,-3.925 0,-2.89 -1.659,-4.039 -3.786,-4.039" style="fill:#1a171b;fill-opacity:1;fill-rule:nonzero;stroke:none" id="path390"></path></g><g id="g392" transform="translate(186.7368,757.9683)"><path d="m 0,0 c -0.888,0 -1.501,-0.637 -1.603,-1.968 l 3.217,0 C 1.547,-0.807 1.047,0 0,0 m 2.377,-2.663 -3.98,0 c 0.077,-1.274 0.681,-2.082 1.66,-2.082 0.693,0 1.104,0.207 1.649,0.569 L 2.105,-4.79 c -0.718,-0.455 -1.238,-0.694 -2.14,-0.694 -1.092,0 -2.423,0.796 -2.423,3.141 0,1.9 1.046,3.081 2.468,3.081 1.559,0 2.4,-1.227 2.4,-2.933 0,-0.205 -0.01,-0.33 -0.033,-0.468" style="fill:#1a171b;fill-opacity:1;fill-rule:nonzero;stroke:none" id="path394"></path></g><g id="g396" transform="translate(194.0879,752.6108)"><path d="m 0,0 0,0.725 c -0.342,-0.499 -0.9,-0.851 -1.65,-0.851 -1.263,0 -2.095,0.739 -2.095,2.456 l 0,3.641 0.854,0 0,-3.491 c 0,-1.286 0.454,-1.867 1.412,-1.867 C -0.648,0.613 0,1.169 0,2.48 l 0,3.491 0.854,0 L 0.854,0 0,0 z" style="fill:#1a171b;fill-opacity:1;fill-rule:nonzero;stroke:none" id="path398"></path></g><g id="g400" transform="translate(197.7402,757.8667)"><path d="m 0,0 0,-3.893 c 0,-0.533 0.147,-0.716 0.602,-0.716 0.344,0 0.569,0.059 0.842,0.172 L 1.387,-5.178 c -0.33,-0.136 -0.646,-0.204 -1.102,-0.204 -0.742,0 -1.139,0.363 -1.139,1.352 l 0,4.03 -0.74,0 0,0.715 0.74,0 0,1.993 0.854,0 0,-1.993 1.478,0 L 1.478,0 0,0 z" style="fill:#1a171b;fill-opacity:1;fill-rule:nonzero;stroke:none" id="path402"></path></g><g id="g404" transform="translate(202.0835,752.4844)"><path d="m 0,0 c -0.819,0 -1.537,0.306 -2.105,0.762 l 0.501,0.627 c 0.477,-0.422 1.036,-0.661 1.628,-0.661 0.817,0 1.206,0.341 1.206,0.921 0,0.49 -0.355,0.763 -1.412,1.218 -1.193,0.511 -1.697,0.878 -1.697,1.833 0,0.91 0.788,1.522 1.868,1.522 0.819,0 1.454,-0.259 1.911,-0.635 L 1.424,4.963 C 0.956,5.325 0.57,5.496 -0.07,5.496 c -0.623,0 -0.988,-0.307 -0.988,-0.741 0,-0.498 0.308,-0.704 1.32,-1.159 C 1.387,3.084 2.046,2.754 2.046,1.684 2.046,0.511 1.034,0 0,0" style="fill:#1a171b;fill-opacity:1;fill-rule:nonzero;stroke:none" id="path406"></path></g><g id="g408" transform="translate(208.9111,757.3657)"><path d="m 0,0 c -0.432,0.386 -0.83,0.603 -1.433,0.603 -0.933,0 -1.65,-0.842 -1.65,-2.332 0,-1.468 0.625,-2.413 1.683,-2.413 0.581,0 0.968,0.238 1.377,0.639 L 0.49,-4.049 c -0.503,-0.514 -1.083,-0.832 -1.923,-0.832 -1.309,0 -2.514,1.001 -2.514,3.084 0,2.206 1.318,3.138 2.569,3.138 0.809,0 1.424,-0.295 1.891,-0.703 L 0,0 z" style="fill:#1a171b;fill-opacity:1;fill-rule:nonzero;stroke:none" id="path410"></path></g><g id="g412" transform="translate(214.4868,752.6108)"><path d="m 0,0 0,3.492 c 0,1.288 -0.456,1.865 -1.412,1.865 -0.83,0 -1.477,-0.556 -1.477,-1.865 l 0,-3.492 -0.854,0 0,7.964 0.854,0 0,-2.718 c 0.34,0.499 0.899,0.85 1.65,0.85 1.262,0 2.093,-0.739 2.093,-2.455 L 0.854,0 0,0 z" style="fill:#1a171b;fill-opacity:1;fill-rule:nonzero;stroke:none" id="path414"></path></g><path d="m 216.842,760.575 0.854,0 0,-7.964 -0.854,0 0,7.964 z" style="fill:#1a171b;fill-opacity:1;fill-rule:nonzero;stroke:none" id="path416"></path><g id="g418" transform="translate(222.5928,755.2827)"><path d="m 0,0 c -0.388,0.217 -0.808,0.343 -1.537,0.343 -0.876,0 -1.4,-0.422 -1.4,-1.175 0,-0.887 0.492,-1.272 1.218,-1.272 0.773,0 1.354,0.397 1.719,0.9 L 0,0 z m 0,-2.672 0,0.725 c -0.421,-0.451 -1.013,-0.851 -1.867,-0.851 -0.933,0 -1.911,0.465 -1.911,1.911 0,1.342 1.104,1.911 2.286,1.911 0.602,0 1.14,-0.148 1.492,-0.34 l 0,0.707 c 0,0.885 -0.421,1.317 -1.297,1.317 -0.627,0 -1.138,-0.168 -1.629,-0.455 l -0.318,0.696 c 0.524,0.284 1.229,0.475 2.003,0.475 1.285,0 2.094,-0.544 2.094,-1.932 l 0,-4.164 -0.853,0 z" style="fill:#1a171b;fill-opacity:1;fill-rule:nonzero;stroke:none" id="path420"></path></g><g id="g422" transform="translate(228.793,752.6108)"><path d="M 0,0 0,3.492 C 0,4.78 -0.454,5.357 -1.409,5.357 -2.242,5.357 -2.89,4.801 -2.89,3.492 l 0,-3.492 -0.854,0 0,5.971 0.854,0 0,-0.725 c 0.342,0.499 0.899,0.85 1.649,0.85 1.264,0 2.095,-0.739 2.095,-2.455 L 0.854,0 0,0 z" style="fill:#1a171b;fill-opacity:1;fill-rule:nonzero;stroke:none" id="path424"></path></g><g id="g426" transform="translate(234.7905,757.0698)"><path d="m 0,0 c -0.331,0.502 -0.91,0.898 -1.616,0.898 -0.988,0 -1.48,-0.853 -1.48,-2.458 0,-1.502 0.569,-2.286 1.514,-2.286 0.637,0 1.162,0.34 1.582,0.866 L 0,0 z m 0,-4.459 0,0.725 c -0.42,-0.452 -0.99,-0.851 -1.797,-0.851 -1.196,0 -2.14,0.91 -2.14,3.015 0,2.116 1.001,3.207 2.253,3.207 0.749,0 1.264,-0.318 1.684,-0.795 l 0,2.663 0.854,0 0,-7.964 -0.854,0 z" style="fill:#1a171b;fill-opacity:1;fill-rule:nonzero;stroke:none" id="path428"></path></g></g></g></g></svg>